<svg xmlns="http://www.w3.org/2000/svg" data-name="Layer 1" viewBox="0 0 100 125" x="0px" y="0px"><title>Artboard 6</title><path d="M11.5,71.61l17.21,7.75a3.18,3.18,0,0,0,4.49-2.9V29.25a3.18,3.18,0,0,0-1.88-2.9L14.11,18.6a3.18,3.18,0,0,0-4.49,2.9V68.7A3.18,3.18,0,0,0,11.5,71.61Z"/><path d="M42.91,79.35l17.21-7.75A3.18,3.18,0,0,0,62,68.7V21.51a3.18,3.18,0,0,0-4.49-2.9L40.3,26.35a3.18,3.18,0,0,0-1.88,2.9v47.2A3.18,3.18,0,0,0,42.91,79.35Z"/><path d="M69.09,71.61l17.21,7.75a3.18,3.18,0,0,0,4.49-2.9V29.25a3.18,3.18,0,0,0-1.88-2.9L71.71,18.6a3.18,3.18,0,0,0-4.49,2.9V68.7A3.18,3.18,0,0,0,69.09,71.61Z"/><text x="0" y="115" fill="#000000" font-size="5px" font-weight="bold" font-family="'Helvetica Neue', Helvetica, Arial-Unicode, Arial, Sans-serif">Created by Bernar  Novalyi</text><text x="0" y="120" fill="#000000" font-size="5px" font-weight="bold" font-family="'Helvetica Neue', Helvetica, Arial-Unicode, Arial, Sans-serif">from the Noun Project</text></svg>